<?xml version="1.0" encoding="UTF-8"?>
<svg width="55" height="40" viewBox="0 0 54.962 39.281" xmlns="http://www.w3.org/2000/svg">
<g transform="translate(0)" data-name="Icon">
<path d="M43.142,39.056c-.485-.445-.816-.786-1.541-1.535-.552-.568-1.339-1.38-2.609-2.666a.877.877,0,0,1-.1-1.108c3.118-4.584,3.2-7.876,3.091-9.085A12.346,12.346,0,0,1,42.69,0c6.548,0,11.674,5.164,12.188,12.276h0a33.528,33.528,0,0,1-10.594,26.79.851.851,0,0,1-1.141-.011ZM32.218,12.34a10.549,10.549,0,0,0,10.472,10.6.891.891,0,0,1,.772.479c.312.6,1.026,4.806-2.758,10.709.991,1.005,1.644,1.68,2.122,2.172.4.409.666.686.9.921A31.974,31.974,0,0,0,53.165,12.4h0C52.719,6.224,48.313,1.739,42.69,1.739A10.549,10.549,0,0,0,32.218,12.34ZM12.641,39.055c-.482-.443-.812-.783-1.534-1.527-.552-.569-1.34-1.382-2.616-2.674a.877.877,0,0,1-.1-1.108c3.117-4.582,3.2-7.875,3.09-9.085A12.346,12.346,0,0,1,12.188,0c6.55,0,11.675,5.164,12.187,12.277a33.526,33.526,0,0,1-10.593,26.79.851.851,0,0,1-1.141-.013ZM1.718,12.34a10.549,10.549,0,0,0,10.471,10.6.888.888,0,0,1,.772.479c.313.6,1.027,4.807-2.756,10.709.995,1.01,1.651,1.686,2.129,2.18.393.405.66.68.894.914A31.967,31.967,0,0,0,22.663,12.4c-.445-6.179-4.85-10.664-10.474-10.664A10.549,10.549,0,0,0,1.718,12.34Z" data-name="Shape 1"/>
</g>
<path transform="translate(0)" d="M43.142,39.056c-.484-.446-.816-.787-1.541-1.535-.552-.569-1.339-1.38-2.609-2.666a.878.878,0,0,1-.1-1.109c3.118-4.584,3.2-7.876,3.091-9.085A12.346,12.346,0,0,1,42.689,0c6.549,0,11.675,5.164,12.188,12.277h0A33.526,33.526,0,0,1,44.282,39.067a.848.848,0,0,1-.563.215A.859.859,0,0,1,43.142,39.056ZM32.217,12.34a10.549,10.549,0,0,0,10.472,10.6.891.891,0,0,1,.773.479c.312.6,1.026,4.806-2.757,10.709.99,1.005,1.643,1.679,2.122,2.171.4.41.666.686.9.922A31.975,31.975,0,0,0,53.164,12.4h0c-.446-6.18-4.851-10.665-10.475-10.665A10.549,10.549,0,0,0,32.217,12.34ZM12.641,39.055c-.482-.443-.812-.782-1.534-1.526-.552-.569-1.34-1.382-2.616-2.674a.877.877,0,0,1-.1-1.109c3.117-4.582,3.2-7.875,3.089-9.085A12.346,12.346,0,0,1,12.188,0c6.55,0,11.676,5.164,12.187,12.278a33.525,33.525,0,0,1-10.593,26.79.849.849,0,0,1-1.141-.013ZM1.717,12.34a10.548,10.548,0,0,0,10.471,10.6.889.889,0,0,1,.772.479c.313.6,1.027,4.807-2.756,10.709,1,1.01,1.651,1.686,2.129,2.18.393.4.66.68.894.913A31.969,31.969,0,0,0,22.663,12.4C22.217,6.224,17.812,1.739,12.188,1.739A10.549,10.549,0,0,0,1.717,12.34Z" fill="#d91818" data-name="Color Overlay"/>
</svg>
